<?xml version="1.0" encoding="iso-8859-1"?>
<!-- Generator: Adobe Illustrator 26.5.0, SVG Export Plug-In . SVG Version: 6.00 Build 0)  -->
<svg version="1.1" baseProfile="basic" id="&#x421;&#x43B;&#x43E;&#x439;_1"
	 xmlns="http://www.w3.org/2000/svg" xmlns:xlink="http://www.w3.org/1999/xlink" x="0px" y="0px" viewBox="0 0 64 64"
	 xml:space="preserve">
<path style="fill:#548500;" d="M24.013,42.363H28v11.644C28,55.107,27.107,56,26.006,56h0c-1.101,0-1.994-0.893-1.994-1.994V42.363z
	"/>
<path style="fill:#548500;" d="M36,42.363h4v11.644C40,55.107,39.107,56,38.006,56h-0.013C36.893,56,36,55.107,36,54.006V42.363z"/>
<path style="fill:#548500;" d="M45.017,30c6.223-0.972,11.01-6.271,11.01-13.213l0.007-0.76c0.01-1.108-0.886-2.011-1.993-2.011h0
	c-1.099,0-1.991,0.89-1.993,1.989l-0.002,0.781c0,4.01-3.03,8.209-7.028,9.218V30z"/>
<path style="fill:#548500;" d="M19.034,28.017c-6.223,0.972-11.01,6.271-11.01,13.213l-0.007,0.76C8.008,43.097,8.903,44,10.011,44
	h0c1.099,0,1.991-0.89,1.993-1.989l0.002-0.781c0-4.011,3.03-8.209,7.028-9.218V28.017z"/>
<path style="fill:#98C900;" d="M45,48H19c-1.657,0-3-1.343-3-3V8c0-1.657,1.343-3,3-3h26c1.657,0,3,1.343,3,3v37
	C48,46.657,46.657,48,45,48z"/>
<g>
	<path style="opacity:0.3;fill:#FFFFFF;" d="M19,5c-1.657,0-3,1.343-3,3v18c2.761,0,5-2.238,5-5v-9.038
		C21,10.878,21.878,10,22.962,10H24c2.761,0,5-2.238,5-5H19z"/>
	<path style="opacity:0.15;" d="M48,45V29c-2.761,0-5,2.238-5,5v7c0,1.105-0.895,2-2,2h-8c-2.761,0-5,2.238-5,5h17
		C46.657,48,48,46.657,48,45z"/>
</g>
<path style="fill:#A0EFFE;" d="M41,26H23c-1.105,0-2-0.895-2-2V12c0-1.105,0.895-2,2-2h18c1.105,0,2,0.895,2,2v12
	C43,25.105,42.105,26,41,26z"/>
<circle style="fill:#9C34C2;" cx="38" cy="15" r="2"/>
<circle style="fill:#9C34C2;" cx="26" cy="15" r="2"/>
<path style="fill:#9C34C2;" d="M24.5,29h8c0.828,0,1.5,0.672,1.5,1.5v0c0,0.828-0.672,1.5-1.5,1.5h-8c-0.828,0-1.5-0.672-1.5-1.5v0
	C23,29.672,23.672,29,24.5,29z"/>
<circle style="fill:#9C34C2;" cx="39.5" cy="30.5" r="1.5"/>
<path style="fill:#FFE691;" d="M26,35h1c0.552,0,1,0.448,1,1v5c0,0.552-0.448,1-1,1h-1c-0.552,0-1-0.448-1-1v-5
	C25,35.448,25.448,35,26,35z"/>
<path style="fill:#FFE691;" d="M23,39v-1c0-0.552,0.448-1,1-1h5c0.552,0,1,0.448,1,1v1c0,0.552-0.448,1-1,1h-5
	C23.448,40,23,39.552,23,39z"/>
<path style="fill:#FD3C4F;" d="M38.5,36c-1.381,0-2.5,1.119-2.5,2.5s1.119,2.5,2.5,2.5s2.5-1.119,2.5-2.5S39.881,36,38.5,36z"/>
<path style="fill:#9C34C2;" d="M28.864,19.001c-0.635,0-1.075,0.806-0.759,1.454C28.795,21.867,30.388,23,31.993,23
	c1.604,0,3.205-1.132,3.901-2.543c0.319-0.647-0.122-1.456-0.758-1.456H28.864z"/>
<g>
	<ellipse style="opacity:0.3;" cx="32" cy="61" rx="18" ry="3"/>
</g>
<line style="fill:none;stroke:#FFFFFF;stroke-width:3;stroke-linecap:round;stroke-linejoin:round;stroke-miterlimit:10;" x1="19.5" y1="13.5" x2="19.5" y2="9.5"/>
</svg>